<svg width="48" height="48" viewBox="0 0 48 48" fill="none" xmlns="http://www.w3.org/2000/svg">
  <defs>
    <linearGradient id="g" x1="8" y1="4" x2="40" y2="44" gradientUnits="userSpaceOnUse">
      <stop stop-color="#22c55e"/>
      <stop offset="1" stop-color="#15803d"/>
    </linearGradient>
  </defs>
  <rect width="48" height="48" rx="11" fill="#ffffff"/>
  <path d="M24 5c0 0 14.5 14.6 14.5 24.6A14.5 14.5 0 1 1 9.5 29.6C9.5 19.6 24 5 24 5Z" fill="url(#g)"/>
  <g stroke="#fff" stroke-width="3" stroke-linecap="round" stroke-linejoin="round" fill="none">
    <path d="M18 27a6.5 6.5 0 0 1 10.3-4.8"/>
    <path d="M30 30a6.5 6.5 0 0 1-10.4 4.6"/>
  </g>
  <path d="M28.8 18.6l0.4 4.1-4 -0.9z" fill="#fff"/>
  <path d="M19.2 38.3l-0.4-4.1 4 0.9z" fill="#fff"/>
</svg>
