<svg xmlns="http://www.w3.org/2000/svg" width="2732" height="2732" viewBox="0 0 2732 2732">
  <!-- ถุงเขียว splash — โลโก้กลางจอบนพื้นเขียว (npm run assets) -->
  <defs>
    <clipPath id="bag"><path d="M18 12C11 15 8 25 10 33C12 41 18 44 24 44C30 44 36 41 38 33C40 25 37 15 30 12Z"/></clipPath>
  </defs>
  <rect width="2732" height="2732" fill="#16a34a"/>
  <g transform="translate(1146,1146) scale(9.166)">
    <path d="M17.5 7.5h13a2 2 0 0 1 2 2.4l-.5 2.6a1.6 1.6 0 0 1-1.6 1.3H17.6a1.6 1.6 0 0 1-1.6-1.3l-.5-2.6a2 2 0 0 1 2-2.4Z" fill="#ffffff"/>
    <path d="M18 12C11 15 8 25 10 33C12 41 18 44 24 44C30 44 36 41 38 33C40 25 37 15 30 12Z" fill="#ffffff"/>
    <g clip-path="url(#bag)" stroke="#16a34a" stroke-width="0.9" opacity="0.18">
      <path d="M6 20l36 0M6 27l36 0M6 34l36 0M6 41l36 0"/>
      <path d="M14 10l0 38M21 10l0 38M28 10l0 38M35 10l0 38"/>
    </g>
    <g stroke="#16a34a" stroke-width="3" stroke-linecap="round" stroke-linejoin="round" fill="none">
      <path d="M18 29.5a6.5 6.5 0 0 1 10.3-4.8"/>
      <path d="M30 31.7a6.5 6.5 0 0 1-10.4 4.5"/>
    </g>
    <path d="M28.8 21.4l0.4 4.1-4-0.9z" fill="#16a34a"/>
    <path d="M19.2 39.9l-0.4-4.1 4 0.9z" fill="#16a34a"/>
  </g>
</svg>
